<?xml version="1.0" encoding="UTF-8" standalone="no"?>
<!DOCTYPE svg PUBLIC "-//W3C//DTD SVG 1.1//EN"
 "http://www.w3.org/Graphics/SVG/1.1/DTD/svg11.dtd">
<!-- Generated by graphviz version 2.46.1 (0)
 -->
<!-- Title: godep Pages: 1 -->
<svg width="8pt" height="8pt"
 viewBox="0.00 0.00 8.00 8.00" xmlns="http://www.w3.org/2000/svg" xmlns:xlink="http://www.w3.org/1999/xlink">
<g id="graph0" class="graph" transform="scale(1 1) rotate(0) translate(4 4)">
<title>godep</title>
<polygon fill="white" stroke="transparent" points="-4,4 -4,-4 4,-4 4,4 -4,4"/>
<!-- (5, 1, 3, 3, 4, 1, 2, 2, 4)(5,) -->
<g id="node82" class="node">
<title>(5, 1, 3, 3, 4, 1, 2, 2, 4)(5,)</title>
<path fill="lightgrey" stroke="black" d="M90,-36C90,-36 -90,-36 -90,-36 -96,-36 -102,-30 -102,-24 -102,-24 -102,-12 -102,-12 -102,-6 -96,0 -90,0 -90,0 90,0 90,0 96,0 102,-6 102,-12 102,-12 102,-24 102,-24 102,-30 96,-36 90,-36"/>
<text text-anchor="middle" x="0" y="-14.3" font-family="Times,serif" font-size="14.00">(5, 1, 3, 3, 4, 1, 2, 2, 4)(5,)</text>
</g>
<!-- (5,)(5, 1, 3, 3, 4, 1, 2, 2, 4) -->
<g id="node154" class="node">
<title>(5,)(5, 1, 3, 3, 4, 1, 2, 2, 4)</title>
<path fill="lightgrey" stroke="black" d="M90,-36C90,-36 -90,-36 -90,-36 -96,-36 -102,-30 -102,-24 -102,-24 -102,-12 -102,-12 -102,-6 -96,0 -90,0 -90,0 90,0 90,0 96,0 102,-6 102,-12 102,-12 102,-24 102,-24 102,-30 96,-36 90,-36"/>
<text text-anchor="middle" x="0" y="-14.3" font-family="Times,serif" font-size="14.00">(5,)(5, 1, 3, 3, 4, 1, 2, 2, 4)</text>
</g>
</g>
</svg>
